# xmcd
#
# Track frame offsets:
#	150
#	13461
#	24677
#	40241
#	54483
#	68328
#	83438
#	101460
#	115389
#	129321
#	143797
#	155006
#	167371
#
# Disc length: 2385 seconds
#
# Revision: 0
# Processed by: cddbd v1.4PL0 Copyright (c) Steve Scherf et al.
# Submitted via: EasyCDDAExtractor 4.6.0.1
#
DISCID=a0094f0d
DTITLE=Tchê Guri - Eu Sou Daqui
DYEAR=2000
DGENRE=Gauchesca
TTITLE0=Quando a gaita roncar
TTITLE1=Eu sou daqui
TTITLE2=Não dá mais
TTITLE3=Bonitão do bailão
TTITLE4=Do teu guri
TTITLE5=Mulherão
TTITLE6=Indecisão
TTITLE7=Recadinho
TTITLE8=Coisas da vida
TTITLE9=Eu sou de são léo
TTITLE10=Destino
TTITLE11=Tem que ter café
TTITLE12=Trem da alegria
EXTD=
EXTT0=
EXTT1=
EXTT2=
EXTT3=
EXTT4=
EXTT5=
EXTT6=
EXTT7=
EXTT8=
EXTT9=
EXTT10=
EXTT11=
EXTT12=
PLAYORDER=
